<?xml version="1.0" standalone="no"?>
<!DOCTYPE svg PUBLIC "-//W3C//DTD SVG 20010904//EN"
 "http://www.w3.org/TR/2001/REC-SVG-20010904/DTD/svg10.dtd">
<svg version="1.0" xmlns="http://www.w3.org/2000/svg"
 width="70.000000pt" height="70.000000pt" viewBox="0 0 70.000000 70.000000"
 preserveAspectRatio="xMidYMid meet">
<metadata>
Created by potrace 1.11, written by Peter Selinger 2001-2013
</metadata>
<g transform="translate(0.000000,70.000000) scale(0.100000,-0.100000)"
fill="#000000" stroke="none">
<path d="M344 648 c-5 -7 -10 -75 -12 -150 l-4 -138 -63 0 c-48 0 -64 -4 -69
-16 -3 -9 -6 -73 -6 -144 0 -104 3 -132 16 -144 21 -22 240 -23 270 -2 18 13
19 30 22 238 1 123 -1 255 -5 293 l-8 70 -67 3 c-46 2 -69 -1 -74 -10z m124
-290 l2 -268 -125 0 -125 0 0 120 0 120 50 0 50 0 0 -70 c0 -63 2 -70 20 -70
19 0 20 7 20 213 0 118 3 217 7 221 4 4 28 6 53 4 l45 -3 3 -267z"/>
</g>
</svg>
